<svg width="133" height="90" viewBox="0 0 133 90" fill="none" xmlns="http://www.w3.org/2000/svg">
<g clip-path="url(#clip0)">
<path d="M121.785 89.333C115.654 89.333 112.017 86.1953 111.739 81.6759H117.602C117.602 83.1824 118.436 85.1878 122.063 85.3125C124.577 85.3125 125.969 83.8061 125.969 82.6738C125.69 80.9179 123.455 80.7931 121.229 80.4093C118.715 80.0447 116.767 79.5361 115.366 78.9124C113.418 77.9049 112.295 75.7651 112.295 73.5102C112.295 69.4897 115.654 66.3521 121.507 66.3521C127.091 66.3521 130.718 69.2403 130.987 73.635H125.412C125.412 72.5123 125.134 70.622 121.785 70.622C119.549 70.622 118.158 70.9962 117.88 72.6274C117.88 74.8919 122.62 74.7672 126.247 75.6404C129.596 76.5232 131.832 78.6533 131.832 81.6759C131.832 87.2028 127.37 89.333 121.785 89.333Z" fill="#94A1B2"/>
<path d="M14.9515 52.2517L34.1999 41.073L44.5245 58.7861H18.5786" fill="#94A1B2"/>
<path d="M55.4276 88.666V66.3088V88.666Z" fill="#94A1B2"/>
<path d="M55.4276 88.666V66.3088" stroke="#94A1B2" stroke-width="8.57036"/>
<path d="M6.01772 77.8192C6.01772 81.3311 9.08825 84.2193 12.4274 84.2193C16.0641 84.2193 18.8468 81.3311 18.8468 77.8192C18.8468 74.432 16.0641 71.4191 12.4274 71.4191C9.08825 71.4191 6.01772 74.432 6.01772 77.8192ZM12.1492 89.3721C6.01772 89.3721 0.721069 84.2193 0.721069 77.8192C0.721069 71.4191 6.01772 66.3911 12.1492 66.3911C14.6632 66.3911 16.8989 67.0244 18.8468 68.3966V66.6406H24.4313V88.8635H18.8468V87.4818C17.1772 88.7388 14.6632 89.3721 12.1492 89.3721Z" fill="#94A1B2"/>
<path d="M86.6498 58.7822L59.8693 12.0722L79.1175 0.768959L112.596 58.7822" fill="#94A1B2"/>
<path d="M31.6851 77.8192C31.6851 81.3311 34.4773 84.2193 38.1044 84.2193C41.4436 84.2193 44.5237 81.3311 44.5237 77.8192C44.5237 74.4321 41.4436 71.4191 38.1044 71.4191C34.4773 71.4191 31.6851 74.4321 31.6851 77.8192ZM37.8261 89.3721C31.4068 89.3721 26.3884 84.2193 26.3884 77.8192C26.3884 71.4191 31.4068 66.3911 37.8261 66.3911C40.3305 66.3911 42.5663 67.0244 44.5237 68.3966V58.9835H50.0986V88.8635H44.5237V87.4818C42.5663 88.7388 40.3305 89.3721 37.8261 89.3721Z" fill="#94A1B2"/>
<path d="M37.5511 32.2868L57.0778 21.2425L78.5618 58.7797H58.1908V64.3066H52.6159V58.7797" fill="#94A1B2"/>
<path d="M128.214 64.4814C126.813 64.4814 125.422 63.2244 125.422 61.718C125.422 60.2115 126.813 58.9545 128.214 58.9545C129.884 58.9545 131.007 60.2115 131.007 61.718C131.007 63.2244 129.884 64.4814 128.214 64.4814ZM128.214 59.3383C126.813 59.3383 125.979 60.461 125.979 61.718C125.979 62.975 126.813 64.1072 128.214 64.1072C129.606 64.1072 130.44 62.975 130.44 61.718C130.44 60.461 129.606 59.3383 128.214 59.3383Z" fill="#94A1B2"/>
<path d="M128.79 63.2334L128.233 61.9764H127.677V63.2334H127.255V60.2204H128.512C128.79 60.2204 129.346 60.6043 129.346 61.1032C129.346 61.6022 129.068 61.8517 128.79 61.9764L129.346 63.2334H128.79ZM128.233 60.6043H127.677V61.6022H128.233C128.79 61.6022 128.79 61.4774 128.79 61.1032C128.79 60.8441 128.79 60.6043 128.233 60.6043Z" fill="#94A1B2"/>
<path d="M91.3682 77.8192C91.3682 81.3311 94.1604 84.2193 97.7875 84.2193C101.136 84.2193 104.197 81.3311 104.197 77.8192C104.197 74.432 101.136 71.4191 97.7875 71.4191C94.1604 71.4191 91.3682 74.432 91.3682 77.8192ZM97.4996 89.3721C91.0899 89.3721 86.0715 84.2193 86.0715 77.8192C86.0715 71.4191 91.0899 66.3911 97.4996 66.3911C100.014 66.3911 102.249 67.0244 104.197 68.3966V66.6406H109.503V88.8635H104.197V87.4818C102.249 88.7388 100.014 89.3721 97.4996 89.3721Z" fill="#94A1B2"/>
<path d="M65.7198 77.8182C65.7198 81.3302 68.7903 84.2184 72.1391 84.2184C75.7661 84.2184 78.5584 81.3302 78.5584 77.8182C78.5584 74.4311 75.7661 71.4181 72.1391 71.4181C68.7903 71.4181 65.7198 74.4311 65.7198 77.8182ZM78.5584 58.9825H84.1333V88.8625H78.5584V87.4808C76.8792 88.7378 74.6435 89.3711 72.1391 89.3711C65.7198 89.3711 60.4231 84.2184 60.4231 77.8182C60.4231 71.4181 65.7198 66.3901 72.1391 66.3901C74.6435 66.3901 76.8792 67.0234 78.5584 68.3956V58.9825Z" fill="#94A1B2"/>
</g>
<defs>
<clipPath id="clip0">
<rect width="131.988" height="89.2758" fill="white" transform="translate(0.293945 0.331055)"/>
</clipPath>
</defs>
</svg>
