<svg width="140" height="51" viewBox="0 0 140 51" fill="none" xmlns="http://www.w3.org/2000/svg">
<path fill-rule="evenodd" clip-rule="evenodd" d="M15.8539 49.9868C11.7137 49.8224 8.32687 48.6896 5.67841 46.5854C5.1728 46.1836 3.9686 44.9782 3.5645 44.4699C2.49037 43.1194 1.76051 41.8052 1.27343 40.3471C-0.225256 35.8583 0.546281 29.9678 3.47959 23.5033C5.99142 17.969 9.86686 12.4799 16.6285 4.87761C17.6247 3.7591 20.5904 0.487305 20.6097 0.487305C20.6167 0.487305 20.4553 0.76751 20.2515 1.10831C18.4935 4.0532 16.989 7.52183 16.1696 10.5246C14.8531 15.343 15.0121 19.4781 16.6347 22.6843C17.754 24.8932 19.673 26.8068 21.8309 27.8643C25.6087 29.7154 31.1395 29.8682 37.8938 28.3124C38.3589 28.2047 61.4027 22.0876 89.1024 14.7185C116.802 7.34854 139.47 1.32369 139.473 1.3287C139.481 1.33526 75.1186 28.8759 41.7071 43.1642C36.416 45.4263 35.001 45.9975 32.5131 46.871C26.1544 49.1041 20.458 50.1694 15.8539 49.9865V49.9868Z" fill="#94A1B2"/>
</svg>
