<svg width="173" height="37" viewBox="0 0 173 37" fill="none" xmlns="http://www.w3.org/2000/svg">
<path fill-rule="evenodd" clip-rule="evenodd" d="M27.029 35.5895L28.2655 36.7617L29.2828 35.5895H34.4151L35.5387 33.9623H27.6933L27.4692 33.7251H25.039L24.8944 33.9625H1.51072L0.40918 35.5895H27.029ZM26.3818 32.2562H23.1599L22.316 31.4426H3.13147L4.23922 29.8003H20.6551L20.7186 29.4397H23.9547L24.0405 29.8003H38.2627L37.1389 31.4426H25.7347C25.7347 31.4426 25.8079 31.8617 26.3818 32.2562ZM22.0698 27.3091H39.9873L41.0999 25.6759H22.0427L22.3019 25.2861H16.6052L16.3462 25.6761H7.07177L5.96246 27.3091H18.1026L18.867 28.0148H22.6547L22.0698 27.3091ZM24.2054 22.9911H42.9194L44.0336 21.3548H25.3387L25.2036 21.0081H19.5882L19.3736 21.355H10.0071L8.9025 22.9911H17.5839C17.5839 22.9911 18.1624 23.1236 17.7571 23.6797H23.5808L24.2054 22.9911ZM27.2617 18.8377H45.6881L46.8085 17.2047H28.8497L28.7415 16.861H22.5491L22.317 17.2047H12.7803L11.6679 18.8377H20.5798C20.5798 18.8377 21.0359 19.0458 20.7181 19.4787H26.99C26.99 19.4787 26.9962 19.2152 27.2617 18.8377ZM30.0556 15.3336H23.69C24.0413 14.7712 23.1941 14.6789 23.1941 14.6789H14.3966L15.4964 13.0411H25.2652L25.513 12.6651H31.9185L32.1951 13.0413H49.5309L48.4071 14.6787H30.4356C30.4356 14.6787 30.1637 14.9669 30.0556 15.3336ZM34.5198 10.5738H51.2771L52.3882 8.93773H35.9518L35.5385 8.22908H28.6675L28.1398 8.93773H18.3743L17.2633 10.5738H25.9511C25.9511 10.5738 26.9907 10.5799 26.5201 11.2487H34.2624C34.2624 11.2487 34.2926 11.0192 34.5198 10.574V10.5738ZM36.1899 4.82126H55.112L53.9947 6.45581H37.8493C37.3931 6.45581 37.0863 7.14289 37.0863 7.14289H29.43C29.8179 6.4898 28.9693 6.45581 28.9693 6.45581H19.9873L21.084 4.82126H35.2298L35.8227 4.29275L37.2421 2.43475H36.902L38.1735 0.844727H39.1415L37.9621 2.43475H37.676L36.1264 4.3559L36.1899 4.82126ZM66.153 4.90184L61.7057 11.377H58.0755L55.0095 15.7972H58.8226L47.9573 31.6291C47.9573 31.6291 47.1132 32.8893 47.1132 34.6919C47.1132 36.4898 49.4402 36.7624 49.4402 36.7624H57.7069L60.3119 32.1744H56.2191C56.2191 32.1744 54.6392 31.9927 55.3782 30.7431C56.1254 29.4706 65.6302 15.7972 65.6302 15.7972H70.4253L73.0544 11.377H68.6627L73.0733 4.90167L66.153 4.90184ZM91.9394 36.7623L112.958 4.90132H105.926L84.9189 36.7623H91.9394ZM150.997 36.7623L172.012 4.90132H164.993L143.979 36.7623H150.997ZM74.701 21.9551H85.8429C85.8429 21.9551 87.0889 19.8861 87.464 18.1744C87.8439 16.4627 85.8046 16.0096 83.5223 16.0096C81.2542 16.0096 77.7654 16.2408 74.701 21.9551ZM88.7196 26.4137H71.8163C71.8163 26.4137 70.0934 28.4567 69.8993 30.1946C69.8993 30.1946 69.8993 31.629 71.6907 31.629H84.6922L81.2878 36.7624H70.6989C70.6989 36.7624 62.658 36.7624 62.658 32.1744C62.658 32.1744 62.5833 28.7448 68.4801 20.7873C74.3785 12.8159 78.4156 12.5093 85.1931 12.5093C91.9687 12.5093 93.8077 14.5937 93.5962 16.3271C93.3689 18.3038 93.1305 19.3437 88.72 26.4137H88.7196ZM133.15 21.9551H144.292C144.292 21.9551 145.541 19.8861 145.913 18.1744C146.291 16.4627 144.244 16.0096 141.969 16.0096C139.696 16.0096 136.208 16.2408 133.15 21.9551ZM147.164 26.4137H130.262C130.262 26.4137 128.534 28.4567 128.348 30.1946C128.348 30.1946 128.348 31.629 130.136 31.629H143.15L139.739 36.7624H129.152C129.152 36.7624 121.105 36.7624 121.105 32.1744C121.105 32.1744 121.022 28.7448 126.929 20.7873C132.825 12.8159 136.863 12.5093 143.64 12.5093C150.417 12.5093 152.245 14.5937 152.051 16.3271C151.814 18.3038 151.576 19.3437 147.164 26.4137ZM106.069 30.1941C106.069 30.1941 106.069 31.63 107.851 31.63H119.189L115.783 36.7619H106.873C106.873 36.7619 98.198 37.027 98.8321 32.1739C98.8321 32.1739 98.7431 28.7443 104.643 20.7868C104.643 20.7868 109.984 12.5088 121.507 12.5088H129.122L125.682 17.5884H119.55C118.992 17.5884 114.537 18.0367 110.546 22.3599C106.558 26.6798 106.237 28.7443 106.069 30.1941Z" fill="#94A1B2"/>
</svg>
